<svg width="321" height="45" viewBox="0 0 321 45" fill="none" xmlns="http://www.w3.org/2000/svg">
<path d="M202.725 40.8016V44.1667H201.269C197.371 44.1667 194.756 43.5903 193.425 42.4374C192.11 41.2846 191.452 38.9867 191.452 35.5437V29.9586C191.452 27.6061 191.03 25.9781 190.184 25.0745C189.339 24.1709 187.804 23.7191 185.581 23.7191H184.148V20.3774H185.581C187.82 20.3774 189.354 19.9334 190.184 19.0454C191.03 18.1418 191.452 16.5294 191.452 14.2081V8.59964C191.452 5.15667 192.11 2.86654 193.425 1.72927C194.756 0.576419 197.371 0 201.269 0H202.725V3.3417H201.128C198.921 3.3417 197.48 3.68444 196.807 4.36992C196.134 5.0554 195.797 6.49646 195.797 8.69311V14.4885C195.797 16.9345 195.437 18.7105 194.717 19.8166C194.012 20.9227 192.799 21.6705 191.077 22.06C192.814 22.4806 194.036 23.244 194.74 24.3501C195.445 25.4562 195.797 27.2244 195.797 29.6548V35.4502C195.797 37.6468 196.134 39.0879 196.807 39.7734C197.48 40.4589 198.921 40.8016 201.128 40.8016H202.725Z" fill="#FE5959"/>
<path d="M236.944 21.3121C236.944 23.8047 236.537 25.9858 235.723 27.8553C234.909 29.7248 233.782 31.2983 232.341 32.5758C230.901 33.8221 229.194 34.7724 227.221 35.4267C225.28 36.0499 223.166 36.3615 220.88 36.3615H211.721V6.30945H220.88C223.291 6.30945 225.483 6.65218 227.456 7.33765C229.429 8.02313 231.12 9.00462 232.529 10.2821C233.938 11.5596 235.019 13.1331 235.77 15.0025C236.553 16.8409 236.944 18.944 236.944 21.3121ZM230.744 21.3121C230.744 14.4884 227.456 11.0766 220.88 11.0766H217.921V31.5943H220.88C227.456 31.5943 230.744 28.1669 230.744 21.3121Z" fill="#FE5959"/>
<path d="M242.252 36.3615V6.30945H262.168V11.0766H248.217V18.5078H261.323V23.0414H248.217V31.5943H262.591V36.3615H242.252Z" fill="#FE5959"/>
<path d="M284.433 36.3615H277.058L265.926 6.30945H272.596L280.91 29.4444L289.318 6.30945H295.941L284.433 36.3615Z" fill="#FE5959"/>
<path d="M302.423 40.8016H304.067C306.259 40.8016 307.683 40.4666 308.341 39.7967C309.014 39.1268 309.351 37.678 309.351 35.4502V29.6548C309.351 27.2244 309.703 25.4562 310.408 24.3501C311.112 23.244 312.334 22.4806 314.072 22.06C312.334 21.6705 311.112 20.9227 310.408 19.8166C309.703 18.7105 309.351 16.9345 309.351 14.4885V8.69311C309.351 6.48089 309.014 5.03982 308.341 4.36992C307.683 3.68444 306.259 3.3417 304.067 3.3417H302.423V0H303.902C307.801 0 310.4 0.576419 311.699 1.72927C313.015 2.86654 313.672 5.15667 313.672 8.59964V14.2081C313.672 16.5294 314.095 18.1418 314.941 19.0454C315.786 19.9334 317.32 20.3774 319.544 20.3774H321V23.7191H319.544C317.32 23.7191 315.786 24.1709 314.941 25.0745C314.095 25.9781 313.672 27.6061 313.672 29.9586V35.5437C313.672 38.9867 313.015 41.2846 311.699 42.4374C310.4 43.5903 307.801 44.1667 303.902 44.1667H302.423V40.8016Z" fill="#FE5959"/>
<path d="M0.875 37.1094V7.05731H7.07525V32.3422H20.744V37.1094H0.875Z" fill="#083678"/>
<path d="M52.6847 22.0599C52.6847 24.3345 52.3716 26.4221 51.7453 28.3227C51.119 30.2234 50.1952 31.8748 48.974 33.2769C47.7527 34.6478 46.2496 35.7228 44.4647 36.5017C42.7111 37.2807 40.6913 37.6702 38.4054 37.6702C35.9942 37.6702 33.8804 37.2651 32.0642 36.455C30.2793 35.6137 28.7918 34.492 27.6019 33.0899C26.4119 31.6878 25.5195 30.0364 24.9245 28.1358C24.3295 26.2351 24.032 24.2099 24.032 22.0599C24.032 19.7854 24.3452 17.6978 24.9715 15.7972C25.6291 13.8965 26.5685 12.2607 27.7898 10.8897C29.011 9.51877 30.5141 8.44382 32.299 7.66486C34.084 6.88591 36.1194 6.49643 38.4054 6.49643C40.7853 6.49643 42.8677 6.91705 44.6526 7.75833C46.4688 8.56844 47.9563 9.69015 49.1149 11.1234C50.3049 12.5255 51.1973 14.1769 51.7923 16.0776C52.3873 17.947 52.6847 19.9412 52.6847 22.0599ZM46.3436 22.0599C46.3436 14.8624 43.6975 11.2636 38.4054 11.2636C33.0819 11.2636 30.4202 14.8624 30.4202 22.0599C30.4202 29.2886 33.0819 32.903 38.4054 32.903C43.6975 32.903 46.3436 29.2886 46.3436 22.0599Z" fill="#083678"/>
<path d="M85.0952 37.1094V12.1516L77.4858 37.1094H71.4264L63.817 12.1516V37.1094H57.9926V7.05731H67.9975L74.4796 28.7901L80.9617 6.91708H91.0136V37.1094H85.0952Z" fill="#083678"/>
<path d="M119.854 29.351C119.854 30.6284 119.525 31.7501 118.868 32.716C118.21 33.6819 117.38 34.4921 116.378 35.1464C115.376 35.8007 114.28 36.2992 113.09 36.642C111.9 36.9535 110.773 37.1094 109.708 37.1094H96.885V7.05731H109.286C110.475 7.05731 111.618 7.2131 112.714 7.52468C113.81 7.83626 114.766 8.30362 115.58 8.92678C116.425 9.51878 117.098 10.2822 117.6 11.2169C118.101 12.1205 118.351 13.1799 118.351 14.395C118.351 15.3921 118.179 16.2645 117.834 17.0123C117.521 17.729 117.098 18.3677 116.566 18.9285C116.034 19.4894 115.392 19.9879 114.64 20.4241C113.92 20.8292 113.169 21.2031 112.386 21.5458C113.482 21.8886 114.484 22.2625 115.392 22.6675C116.3 23.0726 117.083 23.5867 117.74 24.2099C118.398 24.8019 118.915 25.5185 119.29 26.3598C119.666 27.201 119.854 28.1981 119.854 29.351ZM112.151 15.6102C112.151 14.9559 112.01 14.395 111.728 13.9277C111.446 13.4603 111.086 13.0708 110.648 12.7592C110.209 12.4477 109.708 12.214 109.145 12.0582C108.612 11.9024 108.064 11.8245 107.501 11.8245H103.085V19.2557H107.078C107.704 19.2557 108.315 19.1778 108.91 19.022C109.536 18.8662 110.084 18.6326 110.554 18.321C111.023 18.0094 111.399 17.6355 111.681 17.1993C111.994 16.7319 112.151 16.2022 112.151 15.6102ZM113.419 28.1358C113.419 27.3568 113.231 26.7025 112.855 26.1728C112.511 25.612 112.057 25.1758 111.493 24.8642C110.93 24.5215 110.288 24.2878 109.567 24.1631C108.878 24.0073 108.19 23.9294 107.501 23.9294H103.085V32.3422H107.501C108.315 32.3422 109.082 32.2643 109.802 32.1085C110.522 31.9527 111.149 31.719 111.681 31.4074C112.213 31.0647 112.636 30.6285 112.949 30.0988C113.262 29.5691 113.419 28.9147 113.419 28.1358Z" fill="#083678"/>
<path d="M153.016 22.0599C153.016 24.3345 152.703 26.4221 152.077 28.3227C151.45 30.2234 150.526 31.8748 149.305 33.2769C148.084 34.6478 146.581 35.7228 144.796 36.5017C143.042 37.2807 141.023 37.6702 138.737 37.6702C136.325 37.6702 134.212 37.2651 132.395 36.455C130.61 35.6137 129.123 34.492 127.933 33.0899C126.743 31.6878 125.851 30.0364 125.256 28.1358C124.661 26.2351 124.363 24.2099 124.363 22.0599C124.363 19.7854 124.676 17.6978 125.303 15.7972C125.96 13.8965 126.9 12.2607 128.121 10.8897C129.342 9.51877 130.845 8.44382 132.63 7.66486C134.415 6.88591 136.451 6.49643 138.737 6.49643C141.116 6.49643 143.199 6.91705 144.984 7.75833C146.8 8.56844 148.287 9.69015 149.446 11.1234C150.636 12.5255 151.529 14.1769 152.124 16.0776C152.718 17.947 153.016 19.9412 153.016 22.0599ZM146.675 22.0599C146.675 14.8624 144.029 11.2636 138.737 11.2636C133.413 11.2636 130.751 14.8624 130.751 22.0599C130.751 29.2886 133.413 32.903 138.737 32.903C144.029 32.903 146.675 29.2886 146.675 22.0599Z" fill="#083678"/>
<path d="M175.422 37.1094L164.524 22.06V37.1094H158.324V7.05731H164.524V19.9568L174.576 7.05731H181.716L171.053 20.5176L182.984 37.1094H175.422Z" fill="#083678"/>
</svg>
