<svg width="315" height="39" viewBox="0 0 315 39" fill="none" xmlns="http://www.w3.org/2000/svg">
<path d="M33.504 38L33.4 18.708L24.04 34.412H19.464L10.156 19.228V38H0.64V1.6H9.116L21.908 22.608L34.388 1.6H42.864L42.968 38H33.504ZM79.4773 30.044V38H50.2533V1.6H78.8013V9.556H60.4453V15.692H76.6173V23.388H60.4453V30.044H79.4773ZM114.415 30.044V38H85.1908V1.6H113.739V9.556H95.3828V15.692H111.555V23.388H95.3828V30.044H114.415ZM127.876 9.764H116.696V1.6H149.3V9.764H138.172V38H127.876V9.764ZM169.374 38.728C163.966 38.728 159.754 37.2547 156.738 34.308C153.756 31.3613 152.266 27.184 152.266 21.776V1.6H162.562V21.464C162.562 27.288 164.867 30.2 169.478 30.2C174.054 30.2 176.342 27.288 176.342 21.464V1.6H186.482V21.776C186.482 27.184 184.974 31.3613 181.958 34.308C178.976 37.2547 174.782 38.728 169.374 38.728ZM210.096 1.6C213.39 1.6 216.25 2.15466 218.676 3.264C221.103 4.33867 222.975 5.89867 224.292 7.944C225.61 9.95467 226.268 12.3293 226.268 15.068C226.268 17.8067 225.61 20.1813 224.292 22.192C222.975 24.2027 221.103 25.7627 218.676 26.872C216.25 27.9467 213.39 28.484 210.096 28.484H203.752V38H193.456V1.6H210.096ZM209.472 20.372C211.587 20.372 213.182 19.9213 214.256 19.02C215.331 18.084 215.868 16.7667 215.868 15.068C215.868 13.3693 215.331 12.052 214.256 11.116C213.182 10.18 211.587 9.712 209.472 9.712H203.752V20.372H209.472ZM272.981 16.056L272.097 23.544H278.597V30.252H271.265L270.277 38H263.205L264.193 30.252H257.797L256.809 38H249.737L250.725 30.252H244.173V23.544H251.557L252.441 16.056H245.889V9.348H253.273L254.261 1.6H261.333L260.345 9.348H266.741L267.729 1.6H274.801L273.813 9.348H280.365V16.056H272.981ZM265.909 16.056H259.513L258.629 23.544H265.025L265.909 16.056ZM309.249 18.812C310.913 19.7827 312.196 20.9787 313.097 22.4C313.999 23.8213 314.449 25.4507 314.449 27.288C314.449 29.576 313.791 31.5867 312.473 33.32C311.156 35.0533 309.301 36.388 306.909 37.324C304.517 38.26 301.761 38.728 298.641 38.728C295.521 38.728 292.765 38.26 290.373 37.324C287.981 36.388 286.127 35.0533 284.809 33.32C283.492 31.5867 282.833 29.576 282.833 27.288C282.833 25.4507 283.284 23.8213 284.185 22.4C285.087 20.9787 286.369 19.7827 288.033 18.812C286.785 17.9453 285.815 16.888 285.121 15.64C284.463 14.392 284.133 13.0053 284.133 11.48C284.133 9.36533 284.74 7.51066 285.953 5.916C287.167 4.28666 288.865 3.03867 291.049 2.172C293.268 1.30533 295.799 0.871998 298.641 0.871998C301.484 0.871998 303.997 1.30533 306.181 2.172C308.4 3.03867 310.116 4.28666 311.329 5.916C312.543 7.51066 313.149 9.36533 313.149 11.48C313.149 13.0053 312.803 14.392 312.109 15.64C311.451 16.888 310.497 17.9453 309.249 18.812ZM298.641 8.1C297.359 8.1 296.319 8.44666 295.521 9.14C294.724 9.79867 294.325 10.7347 294.325 11.948C294.325 13.1267 294.707 14.0627 295.469 14.756C296.267 15.4147 297.324 15.744 298.641 15.744C299.959 15.744 301.016 15.4147 301.813 14.756C302.611 14.0627 303.009 13.1267 303.009 11.948C303.009 10.7347 302.611 9.79867 301.813 9.14C301.016 8.44666 299.959 8.1 298.641 8.1ZM298.641 31.5C300.305 31.5 301.623 31.1013 302.593 30.304C303.599 29.472 304.101 28.3627 304.101 26.976C304.101 25.5893 303.599 24.4973 302.593 23.7C301.623 22.868 300.305 22.452 298.641 22.452C296.977 22.452 295.643 22.868 294.637 23.7C293.667 24.4973 293.181 25.5893 293.181 26.976C293.181 28.3627 293.667 29.472 294.637 30.304C295.643 31.1013 296.977 31.5 298.641 31.5Z" fill="#FD6B63"/>
</svg>
